<mxfile host="app.diagrams.net" modified="2021-05-25T02:48:11.477Z" agent="5.0 (Windows NT 6.1; Win64; x64) AppleWebKit/537.36 (KHTML, like Gecko) Chrome/90.0.4430.212 Safari/537.36" etag="cN4pTR-tC3jGLr4UrO8O" version="14.7.0" type="github" pages="7">
  <diagram id="o6NNyn_IoVE-6ZNWb1Fd" name="Page-1">
    <mxGraphModel dx="1422" dy="789" grid="1" gridSize="10" guides="1" tooltips="1" connect="1" arrows="1" fold="1" page="1" pageScale="1" pageWidth="850" pageHeight="1100" math="0" shadow="0">
      <root>
        <mxCell id="0" />
        <mxCell id="1" parent="0" />
        <mxCell id="n2U3SD2r29fCCjU7_Q8r-6" value="" style="fillColor=#28A8E0;verticalLabelPosition=bottom;html=1;strokeColor=#ffffff;verticalAlign=top;align=center;points=[[0.145,0.145,0],[0.5,0,0],[0.855,0.145,0],[1,0.5,0],[0.855,0.855,0],[0.5,1,0],[0.145,0.855,0],[0,0.5,0]];pointerEvents=1;shape=mxgraph.cisco_safe.compositeIcon;bgIcon=ellipse;resIcon=mxgraph.cisco_safe.capability.user;" parent="1" vertex="1">
          <mxGeometry x="358" y="60" width="100" height="100" as="geometry" />
        </mxCell>
        <mxCell id="n2U3SD2r29fCCjU7_Q8r-7" value="" style="aspect=fixed;html=1;points=[];align=center;image;fontSize=12;image=img/lib/azure2/general/Process_Explorer.svg;" parent="1" vertex="1">
          <mxGeometry x="130" y="92" width="70" height="68" as="geometry" />
        </mxCell>
        <mxCell id="n2U3SD2r29fCCjU7_Q8r-9" value="" style="aspect=fixed;pointerEvents=1;shadow=0;dashed=0;html=1;strokeColor=none;labelPosition=center;verticalLabelPosition=bottom;verticalAlign=top;align=center;fillColor=#00188D;shape=mxgraph.mscae.enterprise.application" parent="1" vertex="1">
          <mxGeometry x="40" y="331" width="80" height="54.4" as="geometry" />
        </mxCell>
        <mxCell id="n2U3SD2r29fCCjU7_Q8r-10" value="" style="aspect=fixed;pointerEvents=1;shadow=0;dashed=0;html=1;strokeColor=none;labelPosition=center;verticalLabelPosition=bottom;verticalAlign=top;align=center;fillColor=#00188D;shape=mxgraph.mscae.enterprise.client_application" parent="1" vertex="1">
          <mxGeometry x="10" y="90" width="50" height="32" as="geometry" />
        </mxCell>
        <mxCell id="n2U3SD2r29fCCjU7_Q8r-11" value="Trusted Process" style="pointerEvents=1;shadow=0;dashed=0;html=1;strokeColor=none;fillColor=#505050;labelPosition=center;verticalLabelPosition=bottom;verticalAlign=top;outlineConnect=0;align=center;shape=mxgraph.office.concepts.application_windows;" parent="1" vertex="1">
          <mxGeometry x="40" y="865.24" width="80" height="80" as="geometry" />
        </mxCell>
        <mxCell id="n2U3SD2r29fCCjU7_Q8r-14" value="" style="group" parent="1" vertex="1" connectable="0">
          <mxGeometry x="570" y="845.24" width="147.86" height="120" as="geometry" />
        </mxCell>
        <mxCell id="n2U3SD2r29fCCjU7_Q8r-15" value="RPM Folder" style="aspect=fixed;html=1;points=[];align=center;image;fontSize=12;image=img/lib/azure2/general/Folder_Blank.svg;" parent="n2U3SD2r29fCCjU7_Q8r-14" vertex="1">
          <mxGeometry width="147.86" height="120" as="geometry" />
        </mxCell>
        <mxCell id="n2U3SD2r29fCCjU7_Q8r-16" value="a.txt.nxl" style="pointerEvents=1;shadow=0;dashed=0;html=1;strokeColor=#005700;fillColor=#008a00;labelPosition=center;verticalLabelPosition=bottom;verticalAlign=top;outlineConnect=0;align=center;shape=mxgraph.office.concepts.file_key;fontColor=#ffffff;" parent="n2U3SD2r29fCCjU7_Q8r-14" vertex="1">
          <mxGeometry x="85" y="36.74000000000001" width="46" height="56" as="geometry" />
        </mxCell>
        <mxCell id="n2U3SD2r29fCCjU7_Q8r-17" value="a.txt" style="aspect=fixed;html=1;points=[];align=center;image;fontSize=12;image=img/lib/azure2/general/File.svg;" parent="n2U3SD2r29fCCjU7_Q8r-14" vertex="1">
          <mxGeometry x="20" y="35" width="45.45" height="56" as="geometry" />
        </mxCell>
        <mxCell id="n2U3SD2r29fCCjU7_Q8r-18" value="" style="group" parent="1" vertex="1" connectable="0">
          <mxGeometry x="240" y="845.24" width="147.86" height="120" as="geometry" />
        </mxCell>
        <mxCell id="n2U3SD2r29fCCjU7_Q8r-1" value="RPM Folder" style="aspect=fixed;html=1;points=[];align=center;image;fontSize=12;image=img/lib/azure2/general/Folder_Blank.svg;" parent="n2U3SD2r29fCCjU7_Q8r-18" vertex="1">
          <mxGeometry width="147.86" height="120" as="geometry" />
        </mxCell>
        <mxCell id="n2U3SD2r29fCCjU7_Q8r-2" value="a.txt.nxl" style="pointerEvents=1;shadow=0;dashed=0;html=1;strokeColor=#005700;fillColor=#008a00;labelPosition=center;verticalLabelPosition=bottom;verticalAlign=top;outlineConnect=0;align=center;shape=mxgraph.office.concepts.file_key;fontColor=#ffffff;" parent="n2U3SD2r29fCCjU7_Q8r-18" vertex="1">
          <mxGeometry x="85" y="36.74000000000001" width="46" height="56" as="geometry" />
        </mxCell>
        <mxCell id="n2U3SD2r29fCCjU7_Q8r-3" value="a.txt" style="aspect=fixed;html=1;points=[];align=center;image;fontSize=12;image=img/lib/azure2/general/File.svg;" parent="n2U3SD2r29fCCjU7_Q8r-18" vertex="1">
          <mxGeometry x="20" y="35" width="45.45" height="56" as="geometry" />
        </mxCell>
        <mxCell id="n2U3SD2r29fCCjU7_Q8r-12" value="" style="endArrow=classic;html=1;entryX=0.022;entryY=0.674;entryDx=0;entryDy=0;entryPerimeter=0;" parent="1" target="n2U3SD2r29fCCjU7_Q8r-3" edge="1">
          <mxGeometry width="50" height="50" relative="1" as="geometry">
            <mxPoint x="120" y="918" as="sourcePoint" />
            <mxPoint x="220" y="919" as="targetPoint" />
          </mxGeometry>
        </mxCell>
        <mxCell id="n2U3SD2r29fCCjU7_Q8r-21" value="delete a.txt" style="text;html=1;align=center;verticalAlign=middle;resizable=0;points=[];autosize=1;strokeColor=none;" parent="1" vertex="1">
          <mxGeometry x="147" y="898" width="70" height="20" as="geometry" />
        </mxCell>
        <mxCell id="n2U3SD2r29fCCjU7_Q8r-27" value="" style="group" parent="1" vertex="1" connectable="0">
          <mxGeometry x="240" y="280" width="147.86" height="120" as="geometry" />
        </mxCell>
        <mxCell id="n2U3SD2r29fCCjU7_Q8r-28" value="RPM Folder" style="aspect=fixed;html=1;points=[];align=center;image;fontSize=12;image=img/lib/azure2/general/Folder_Blank.svg;" parent="n2U3SD2r29fCCjU7_Q8r-27" vertex="1">
          <mxGeometry width="147.86" height="120" as="geometry" />
        </mxCell>
        <mxCell id="n2U3SD2r29fCCjU7_Q8r-29" value="a.txt.nxl" style="pointerEvents=1;shadow=0;dashed=0;html=1;strokeColor=#005700;fillColor=#008a00;labelPosition=center;verticalLabelPosition=bottom;verticalAlign=top;outlineConnect=0;align=center;shape=mxgraph.office.concepts.file_key;fontColor=#ffffff;" parent="n2U3SD2r29fCCjU7_Q8r-27" vertex="1">
          <mxGeometry x="85" y="47.74000000000001" width="46" height="56" as="geometry" />
        </mxCell>
        <mxCell id="n2U3SD2r29fCCjU7_Q8r-30" value="a.txt" style="aspect=fixed;html=1;points=[];align=center;image;fontSize=12;image=img/lib/azure2/general/File.svg;" parent="n2U3SD2r29fCCjU7_Q8r-27" vertex="1">
          <mxGeometry x="20" y="46" width="45.45" height="56" as="geometry" />
        </mxCell>
        <mxCell id="n2U3SD2r29fCCjU7_Q8r-31" value="" style="endArrow=classic;html=1;entryX=0.022;entryY=0.674;entryDx=0;entryDy=0;entryPerimeter=0;" parent="1" target="n2U3SD2r29fCCjU7_Q8r-30" edge="1">
          <mxGeometry width="50" height="50" relative="1" as="geometry">
            <mxPoint x="120" y="363.76" as="sourcePoint" />
            <mxPoint x="220" y="364.76" as="targetPoint" />
          </mxGeometry>
        </mxCell>
        <mxCell id="n2U3SD2r29fCCjU7_Q8r-32" value="delete a.txt" style="text;html=1;align=center;verticalAlign=middle;resizable=0;points=[];autosize=1;strokeColor=none;" parent="1" vertex="1">
          <mxGeometry x="147" y="343.76" width="70" height="20" as="geometry" />
        </mxCell>
        <mxCell id="n2U3SD2r29fCCjU7_Q8r-24" value="RPM Folder" style="aspect=fixed;html=1;points=[];align=center;image;fontSize=12;image=img/lib/azure2/general/Folder_Blank.svg;" parent="1" vertex="1">
          <mxGeometry x="570" y="280" width="147.86" height="120" as="geometry" />
        </mxCell>
        <mxCell id="n2U3SD2r29fCCjU7_Q8r-33" value="" style="shape=flexArrow;endArrow=classic;html=1;entryX=0.007;entryY=0.667;entryDx=0;entryDy=0;entryPerimeter=0;" parent="1" edge="1">
          <mxGeometry width="50" height="50" relative="1" as="geometry">
            <mxPoint x="390" y="371" as="sourcePoint" />
            <mxPoint x="571.03502" y="371.03999999999996" as="targetPoint" />
          </mxGeometry>
        </mxCell>
        <mxCell id="n2U3SD2r29fCCjU7_Q8r-34" value="a.txt will be deleted&lt;br&gt;a.txt.nxl will be deleted" style="text;html=1;align=center;verticalAlign=middle;resizable=0;points=[];autosize=1;strokeColor=none;" parent="1" vertex="1">
          <mxGeometry x="396" y="329.76" width="140" height="30" as="geometry" />
        </mxCell>
        <mxCell id="n2U3SD2r29fCCjU7_Q8r-35" value="" style="aspect=fixed;pointerEvents=1;shadow=0;dashed=0;html=1;strokeColor=none;labelPosition=center;verticalLabelPosition=bottom;verticalAlign=top;align=center;fillColor=#00188D;shape=mxgraph.mscae.enterprise.application" parent="1" vertex="1">
          <mxGeometry x="40" y="560" width="80" height="54.4" as="geometry" />
        </mxCell>
        <mxCell id="n2U3SD2r29fCCjU7_Q8r-36" value="" style="group" parent="1" vertex="1" connectable="0">
          <mxGeometry x="570" y="520" width="147.86" height="120" as="geometry" />
        </mxCell>
        <mxCell id="n2U3SD2r29fCCjU7_Q8r-37" value="RPM Folder" style="aspect=fixed;html=1;points=[];align=center;image;fontSize=12;image=img/lib/azure2/general/Folder_Blank.svg;" parent="n2U3SD2r29fCCjU7_Q8r-36" vertex="1">
          <mxGeometry width="147.86" height="120" as="geometry" />
        </mxCell>
        <mxCell id="n2U3SD2r29fCCjU7_Q8r-38" value="a.txt.nxl" style="pointerEvents=1;shadow=0;dashed=0;html=1;strokeColor=#005700;fillColor=#008a00;labelPosition=center;verticalLabelPosition=bottom;verticalAlign=top;outlineConnect=0;align=center;shape=mxgraph.office.concepts.file_key;fontColor=#ffffff;" parent="n2U3SD2r29fCCjU7_Q8r-36" vertex="1">
          <mxGeometry x="85" y="36.74000000000001" width="46" height="56" as="geometry" />
        </mxCell>
        <mxCell id="n2U3SD2r29fCCjU7_Q8r-39" value="a.txt" style="aspect=fixed;html=1;points=[];align=center;image;fontSize=12;image=img/lib/azure2/general/File.svg;" parent="n2U3SD2r29fCCjU7_Q8r-36" vertex="1">
          <mxGeometry x="20" y="35" width="45.45" height="56" as="geometry" />
        </mxCell>
        <mxCell id="n2U3SD2r29fCCjU7_Q8r-57" value="copy a.txt" style="text;html=1;align=center;verticalAlign=middle;resizable=0;points=[];autosize=1;strokeColor=none;" parent="1" vertex="1">
          <mxGeometry x="140" y="566" width="60" height="20" as="geometry" />
        </mxCell>
        <mxCell id="n2U3SD2r29fCCjU7_Q8r-46" value="Normal Folder" style="aspect=fixed;html=1;points=[];align=center;image;fontSize=12;image=img/lib/azure2/general/Folder_Blank.svg;" parent="1" vertex="1">
          <mxGeometry x="240" y="520" width="147.86" height="120" as="geometry" />
        </mxCell>
        <mxCell id="n2U3SD2r29fCCjU7_Q8r-48" value="" style="aspect=fixed;html=1;points=[];align=center;image;fontSize=12;image=img/lib/azure2/general/File.svg;autosize=0;labelBorderColor=#66FFB3;imageBackground=#FFFFFF;" parent="1" vertex="1">
          <mxGeometry x="84.55000000000001" y="190" width="45.45" height="56" as="geometry" />
        </mxCell>
        <mxCell id="n2U3SD2r29fCCjU7_Q8r-58" value="" style="verticalLabelPosition=bottom;html=1;verticalAlign=top;align=center;strokeColor=none;fillColor=#00BEF2;shape=mxgraph.azure.cloud_services_configuration_file;pointerEvents=1;" parent="1" vertex="1">
          <mxGeometry x="305" y="193" width="47.5" height="50" as="geometry" />
        </mxCell>
        <mxCell id="n2U3SD2r29fCCjU7_Q8r-59" value="a.txt" style="shape=image;html=1;verticalAlign=top;verticalLabelPosition=bottom;labelBackgroundColor=#ffffff;imageAspect=0;aspect=fixed;image=https://cdn3.iconfinder.com/data/icons/google-suits-1/32/7_docs_document_file_data_google_suits-128.png" parent="1" vertex="1">
          <mxGeometry x="240" y="549.2" width="65" height="65" as="geometry" />
        </mxCell>
        <mxCell id="n2U3SD2r29fCCjU7_Q8r-56" value="" style="endArrow=classic;html=1;exitX=1;exitY=0.5;exitDx=0;exitDy=0;exitPerimeter=0;" parent="1" edge="1">
          <mxGeometry width="50" height="50" relative="1" as="geometry">
            <mxPoint x="120" y="587.2" as="sourcePoint" />
            <mxPoint x="254" y="587" as="targetPoint" />
          </mxGeometry>
        </mxCell>
        <mxCell id="n2U3SD2r29fCCjU7_Q8r-60" value="" style="shape=flexArrow;endArrow=classic;html=1;entryX=-0.014;entryY=0.575;entryDx=0;entryDy=0;entryPerimeter=0;" parent="1" target="n2U3SD2r29fCCjU7_Q8r-37" edge="1">
          <mxGeometry width="50" height="50" relative="1" as="geometry">
            <mxPoint x="390" y="589" as="sourcePoint" />
            <mxPoint x="450" y="590" as="targetPoint" />
          </mxGeometry>
        </mxCell>
        <mxCell id="n2U3SD2r29fCCjU7_Q8r-61" value="ACCESS DENIDED" style="text;html=1;align=center;verticalAlign=middle;resizable=0;points=[];autosize=1;strokeColor=none;" parent="1" vertex="1">
          <mxGeometry x="405" y="560" width="120" height="20" as="geometry" />
        </mxCell>
        <mxCell id="GBSRnwBMVa9BkAepPon0-1" value="" style="group" parent="1" vertex="1" connectable="0">
          <mxGeometry x="570" y="70" width="147.86" height="120" as="geometry" />
        </mxCell>
        <mxCell id="GBSRnwBMVa9BkAepPon0-2" value="RPM Folder" style="aspect=fixed;html=1;points=[];align=center;image;fontSize=12;image=img/lib/azure2/general/Folder_Blank.svg;" parent="GBSRnwBMVa9BkAepPon0-1" vertex="1">
          <mxGeometry width="147.86" height="120" as="geometry" />
        </mxCell>
        <mxCell id="GBSRnwBMVa9BkAepPon0-3" value="a.txt.nxl" style="pointerEvents=1;shadow=0;dashed=0;html=1;strokeColor=#005700;fillColor=#008a00;labelPosition=center;verticalLabelPosition=bottom;verticalAlign=top;outlineConnect=0;align=center;shape=mxgraph.office.concepts.file_key;fontColor=#ffffff;" parent="GBSRnwBMVa9BkAepPon0-1" vertex="1">
          <mxGeometry x="85" y="36.74000000000001" width="46" height="56" as="geometry" />
        </mxCell>
        <mxCell id="GBSRnwBMVa9BkAepPon0-4" value="a.txt" style="aspect=fixed;html=1;points=[];align=center;image;fontSize=12;image=img/lib/azure2/general/File.svg;" parent="GBSRnwBMVa9BkAepPon0-1" vertex="1">
          <mxGeometry x="20" y="35" width="45.45" height="56" as="geometry" />
        </mxCell>
      </root>
    </mxGraphModel>
  </diagram>
  <diagram id="PHeUe2Da_BsfWAd3VkI_" name="Page-2">
    <mxGraphModel dx="1422" dy="789" grid="1" gridSize="10" guides="1" tooltips="1" connect="1" arrows="1" fold="1" page="1" pageScale="1" pageWidth="850" pageHeight="1100" math="0" shadow="0">
      <root>
        <mxCell id="C3OAfKHBKWUGaYMqsWQQ-0" />
        <mxCell id="C3OAfKHBKWUGaYMqsWQQ-1" parent="C3OAfKHBKWUGaYMqsWQQ-0" />
        <mxCell id="DWqkPIsVsZBQH9spkVMU-0" value="&lt;div style=&quot;font-size: 16px&quot;&gt;&lt;ol&gt;&lt;li&gt;Trusted process want to delete the decrepted file in a RPM folder, without delete the encrypted file&lt;/li&gt;&lt;li&gt;Trusted process want to overwirte the decrepted file in a RPM folder&lt;/li&gt;&lt;/ol&gt;&lt;/div&gt;" style="text;html=1;align=left;verticalAlign=middle;resizable=0;points=[];autosize=1;strokeColor=none;" parent="C3OAfKHBKWUGaYMqsWQQ-1" vertex="1">
          <mxGeometry x="40" y="60" width="720" height="70" as="geometry" />
        </mxCell>
      </root>
    </mxGraphModel>
  </diagram>
  <diagram id="Qw7SlQurvlLxu6b0OGKD" name="Page-3">
    <mxGraphModel dx="1422" dy="823" grid="1" gridSize="10" guides="1" tooltips="1" connect="1" arrows="1" fold="1" page="1" pageScale="1" pageWidth="850" pageHeight="1100" math="0" shadow="0">
      <root>
        <mxCell id="P03FhhvTJWEhivGMcLDI-0" />
        <mxCell id="P03FhhvTJWEhivGMcLDI-1" parent="P03FhhvTJWEhivGMcLDI-0" />
        <mxCell id="EfkP3ArHvR3N8VrKUx51-0" value="" style="aspect=fixed;pointerEvents=1;shadow=0;dashed=0;html=1;strokeColor=none;labelPosition=center;verticalLabelPosition=bottom;verticalAlign=top;align=center;fillColor=#00188D;shape=mxgraph.mscae.enterprise.application" vertex="1" parent="P03FhhvTJWEhivGMcLDI-1">
          <mxGeometry x="40" y="121" width="80" height="54.4" as="geometry" />
        </mxCell>
        <mxCell id="EfkP3ArHvR3N8VrKUx51-1" value="" style="group" vertex="1" connectable="0" parent="P03FhhvTJWEhivGMcLDI-1">
          <mxGeometry x="240" y="81" width="147.86" height="120" as="geometry" />
        </mxCell>
        <mxCell id="EfkP3ArHvR3N8VrKUx51-2" value="RPM Folder" style="aspect=fixed;html=1;points=[];align=center;image;fontSize=12;image=img/lib/azure2/general/Folder_Blank.svg;" vertex="1" parent="EfkP3ArHvR3N8VrKUx51-1">
          <mxGeometry width="147.86" height="120" as="geometry" />
        </mxCell>
        <mxCell id="EfkP3ArHvR3N8VrKUx51-3" value="a.txt.nxl" style="pointerEvents=1;shadow=0;dashed=0;html=1;strokeColor=#005700;fillColor=#008a00;labelPosition=center;verticalLabelPosition=bottom;verticalAlign=top;outlineConnect=0;align=center;shape=mxgraph.office.concepts.file_key;fontColor=#ffffff;" vertex="1" parent="EfkP3ArHvR3N8VrKUx51-1">
          <mxGeometry x="85" y="36.74000000000001" width="46" height="56" as="geometry" />
        </mxCell>
        <mxCell id="EfkP3ArHvR3N8VrKUx51-4" value="a.txt" style="aspect=fixed;html=1;points=[];align=center;image;fontSize=12;image=img/lib/azure2/general/File.svg;" vertex="1" parent="EfkP3ArHvR3N8VrKUx51-1">
          <mxGeometry x="20" y="35" width="45.45" height="56" as="geometry" />
        </mxCell>
        <mxCell id="EfkP3ArHvR3N8VrKUx51-5" value="" style="endArrow=classic;html=1;entryX=0.022;entryY=0.674;entryDx=0;entryDy=0;entryPerimeter=0;" edge="1" parent="P03FhhvTJWEhivGMcLDI-1" target="EfkP3ArHvR3N8VrKUx51-4">
          <mxGeometry width="50" height="50" relative="1" as="geometry">
            <mxPoint x="120" y="153.76" as="sourcePoint" />
            <mxPoint x="220" y="154.76" as="targetPoint" />
          </mxGeometry>
        </mxCell>
        <mxCell id="EfkP3ArHvR3N8VrKUx51-6" value="delete a.txt" style="text;html=1;align=center;verticalAlign=middle;resizable=0;points=[];autosize=1;strokeColor=none;" vertex="1" parent="P03FhhvTJWEhivGMcLDI-1">
          <mxGeometry x="147" y="133.76" width="70" height="20" as="geometry" />
        </mxCell>
        <mxCell id="EfkP3ArHvR3N8VrKUx51-7" value="RPM Folder" style="aspect=fixed;html=1;points=[];align=center;image;fontSize=12;image=img/lib/azure2/general/Folder_Blank.svg;" vertex="1" parent="P03FhhvTJWEhivGMcLDI-1">
          <mxGeometry x="570" y="81" width="147.86" height="120" as="geometry" />
        </mxCell>
        <mxCell id="EfkP3ArHvR3N8VrKUx51-8" value="" style="shape=flexArrow;endArrow=classic;html=1;entryX=0.007;entryY=0.667;entryDx=0;entryDy=0;entryPerimeter=0;" edge="1" parent="P03FhhvTJWEhivGMcLDI-1" target="EfkP3ArHvR3N8VrKUx51-7">
          <mxGeometry width="50" height="50" relative="1" as="geometry">
            <mxPoint x="390" y="161" as="sourcePoint" />
            <mxPoint x="450" y="281" as="targetPoint" />
          </mxGeometry>
        </mxCell>
        <mxCell id="EfkP3ArHvR3N8VrKUx51-9" value="a.txt will be deleted&lt;br&gt;a.txt.nxl will be deleted" style="text;html=1;align=center;verticalAlign=middle;resizable=0;points=[];autosize=1;strokeColor=none;" vertex="1" parent="P03FhhvTJWEhivGMcLDI-1">
          <mxGeometry x="396" y="119.75999999999999" width="140" height="30" as="geometry" />
        </mxCell>
        <mxCell id="EfkP3ArHvR3N8VrKUx51-10" value="" style="aspect=fixed;pointerEvents=1;shadow=0;dashed=0;html=1;strokeColor=none;labelPosition=center;verticalLabelPosition=bottom;verticalAlign=top;align=center;fillColor=#00188D;shape=mxgraph.mscae.enterprise.application" vertex="1" parent="P03FhhvTJWEhivGMcLDI-1">
          <mxGeometry x="40" y="274" width="80" height="54.4" as="geometry" />
        </mxCell>
        <mxCell id="EfkP3ArHvR3N8VrKUx51-11" value="" style="group" vertex="1" connectable="0" parent="P03FhhvTJWEhivGMcLDI-1">
          <mxGeometry x="570" y="234" width="147.86" height="120" as="geometry" />
        </mxCell>
        <mxCell id="EfkP3ArHvR3N8VrKUx51-12" value="RPM Folder" style="aspect=fixed;html=1;points=[];align=center;image;fontSize=12;image=img/lib/azure2/general/Folder_Blank.svg;" vertex="1" parent="EfkP3ArHvR3N8VrKUx51-11">
          <mxGeometry width="147.86" height="120" as="geometry" />
        </mxCell>
        <mxCell id="EfkP3ArHvR3N8VrKUx51-13" value="a.txt.nxl" style="pointerEvents=1;shadow=0;dashed=0;html=1;strokeColor=#005700;fillColor=#008a00;labelPosition=center;verticalLabelPosition=bottom;verticalAlign=top;outlineConnect=0;align=center;shape=mxgraph.office.concepts.file_key;fontColor=#ffffff;" vertex="1" parent="EfkP3ArHvR3N8VrKUx51-11">
          <mxGeometry x="85" y="36.74000000000001" width="46" height="56" as="geometry" />
        </mxCell>
        <mxCell id="EfkP3ArHvR3N8VrKUx51-14" value="a.txt" style="aspect=fixed;html=1;points=[];align=center;image;fontSize=12;image=img/lib/azure2/general/File.svg;" vertex="1" parent="EfkP3ArHvR3N8VrKUx51-11">
          <mxGeometry x="20" y="35" width="45.45" height="56" as="geometry" />
        </mxCell>
        <mxCell id="EfkP3ArHvR3N8VrKUx51-15" value="copy a.txt" style="text;html=1;align=center;verticalAlign=middle;resizable=0;points=[];autosize=1;strokeColor=none;" vertex="1" parent="P03FhhvTJWEhivGMcLDI-1">
          <mxGeometry x="140" y="280" width="60" height="20" as="geometry" />
        </mxCell>
        <mxCell id="EfkP3ArHvR3N8VrKUx51-16" value="Normal Folder" style="aspect=fixed;html=1;points=[];align=center;image;fontSize=12;image=img/lib/azure2/general/Folder_Blank.svg;" vertex="1" parent="P03FhhvTJWEhivGMcLDI-1">
          <mxGeometry x="240" y="234" width="147.86" height="120" as="geometry" />
        </mxCell>
        <mxCell id="EfkP3ArHvR3N8VrKUx51-17" value="a.txt" style="shape=image;html=1;verticalAlign=top;verticalLabelPosition=bottom;labelBackgroundColor=#ffffff;imageAspect=0;aspect=fixed;image=https://cdn3.iconfinder.com/data/icons/google-suits-1/32/7_docs_document_file_data_google_suits-128.png" vertex="1" parent="P03FhhvTJWEhivGMcLDI-1">
          <mxGeometry x="240" y="263.20000000000005" width="65" height="65" as="geometry" />
        </mxCell>
        <mxCell id="EfkP3ArHvR3N8VrKUx51-18" value="" style="endArrow=classic;html=1;exitX=1;exitY=0.5;exitDx=0;exitDy=0;exitPerimeter=0;" edge="1" parent="P03FhhvTJWEhivGMcLDI-1">
          <mxGeometry width="50" height="50" relative="1" as="geometry">
            <mxPoint x="120" y="301.20000000000005" as="sourcePoint" />
            <mxPoint x="254" y="301" as="targetPoint" />
          </mxGeometry>
        </mxCell>
        <mxCell id="EfkP3ArHvR3N8VrKUx51-19" value="" style="shape=flexArrow;endArrow=classic;html=1;entryX=-0.014;entryY=0.575;entryDx=0;entryDy=0;entryPerimeter=0;" edge="1" parent="P03FhhvTJWEhivGMcLDI-1" target="EfkP3ArHvR3N8VrKUx51-12">
          <mxGeometry width="50" height="50" relative="1" as="geometry">
            <mxPoint x="390" y="303" as="sourcePoint" />
            <mxPoint x="450" y="304" as="targetPoint" />
          </mxGeometry>
        </mxCell>
        <mxCell id="EfkP3ArHvR3N8VrKUx51-20" value="ACCESS DENIDED" style="text;html=1;align=center;verticalAlign=middle;resizable=0;points=[];autosize=1;strokeColor=none;" vertex="1" parent="P03FhhvTJWEhivGMcLDI-1">
          <mxGeometry x="405" y="274" width="120" height="20" as="geometry" />
        </mxCell>
        <mxCell id="EfkP3ArHvR3N8VrKUx51-21" value="1. when process try o delete a.txt, it will delete a.txt and a.txt.nxl&lt;br&gt;&lt;div&gt;&lt;span&gt;2. when process try to copy the same name file to RPM folder, will be denided&lt;/span&gt;&lt;/div&gt;" style="text;html=1;align=left;verticalAlign=middle;resizable=0;points=[];autosize=1;strokeColor=none;" vertex="1" parent="P03FhhvTJWEhivGMcLDI-1">
          <mxGeometry x="40" y="410" width="440" height="30" as="geometry" />
        </mxCell>
      </root>
    </mxGraphModel>
  </diagram>
  <diagram id="zjksGobWvAJSCShZ6EVU" name="Page-4">
    <mxGraphModel dx="1422" dy="823" grid="1" gridSize="10" guides="1" tooltips="1" connect="1" arrows="1" fold="1" page="1" pageScale="1" pageWidth="850" pageHeight="1100" math="0" shadow="0">
      <root>
        <mxCell id="GMv7muQKxePfa3yibNe2-0" />
        <mxCell id="GMv7muQKxePfa3yibNe2-1" parent="GMv7muQKxePfa3yibNe2-0" />
        <mxCell id="r_QSIj7Veg4OnCeHJCxJ-0" value="Trusted Process" style="pointerEvents=1;shadow=0;dashed=0;html=1;strokeColor=none;fillColor=#505050;labelPosition=center;verticalLabelPosition=bottom;verticalAlign=top;outlineConnect=0;align=center;shape=mxgraph.office.concepts.application_windows;" vertex="1" parent="GMv7muQKxePfa3yibNe2-1">
          <mxGeometry x="40" y="100" width="80" height="80" as="geometry" />
        </mxCell>
        <mxCell id="r_QSIj7Veg4OnCeHJCxJ-5" value="" style="group" vertex="1" connectable="0" parent="GMv7muQKxePfa3yibNe2-1">
          <mxGeometry x="240" y="80" width="147.86" height="120" as="geometry" />
        </mxCell>
        <mxCell id="r_QSIj7Veg4OnCeHJCxJ-6" value="RPM Folder" style="aspect=fixed;html=1;points=[];align=center;image;fontSize=12;image=img/lib/azure2/general/Folder_Blank.svg;" vertex="1" parent="r_QSIj7Veg4OnCeHJCxJ-5">
          <mxGeometry width="147.86" height="120" as="geometry" />
        </mxCell>
        <mxCell id="r_QSIj7Veg4OnCeHJCxJ-7" value="a.txt.nxl" style="pointerEvents=1;shadow=0;dashed=0;html=1;strokeColor=#005700;fillColor=#008a00;labelPosition=center;verticalLabelPosition=bottom;verticalAlign=top;outlineConnect=0;align=center;shape=mxgraph.office.concepts.file_key;fontColor=#ffffff;" vertex="1" parent="r_QSIj7Veg4OnCeHJCxJ-5">
          <mxGeometry x="85" y="36.74000000000001" width="46" height="56" as="geometry" />
        </mxCell>
        <mxCell id="r_QSIj7Veg4OnCeHJCxJ-8" value="a.txt" style="aspect=fixed;html=1;points=[];align=center;image;fontSize=12;image=img/lib/azure2/general/File.svg;" vertex="1" parent="r_QSIj7Veg4OnCeHJCxJ-5">
          <mxGeometry x="20" y="35" width="45.45" height="56" as="geometry" />
        </mxCell>
        <mxCell id="r_QSIj7Veg4OnCeHJCxJ-9" value="" style="endArrow=classic;html=1;entryX=0.022;entryY=0.674;entryDx=0;entryDy=0;entryPerimeter=0;" edge="1" parent="GMv7muQKxePfa3yibNe2-1" target="r_QSIj7Veg4OnCeHJCxJ-8">
          <mxGeometry width="50" height="50" relative="1" as="geometry">
            <mxPoint x="120" y="152.76" as="sourcePoint" />
            <mxPoint x="220" y="153.76" as="targetPoint" />
          </mxGeometry>
        </mxCell>
        <mxCell id="r_QSIj7Veg4OnCeHJCxJ-10" value="delete a.txt" style="text;html=1;align=center;verticalAlign=middle;resizable=0;points=[];autosize=1;strokeColor=none;" vertex="1" parent="GMv7muQKxePfa3yibNe2-1">
          <mxGeometry x="147" y="132.76" width="70" height="20" as="geometry" />
        </mxCell>
        <mxCell id="r_QSIj7Veg4OnCeHJCxJ-11" value="Trusted Process" style="pointerEvents=1;shadow=0;dashed=0;html=1;strokeColor=none;fillColor=#505050;labelPosition=center;verticalLabelPosition=bottom;verticalAlign=top;outlineConnect=0;align=center;shape=mxgraph.office.concepts.application_windows;" vertex="1" parent="GMv7muQKxePfa3yibNe2-1">
          <mxGeometry x="40" y="259" width="80" height="80" as="geometry" />
        </mxCell>
        <mxCell id="r_QSIj7Veg4OnCeHJCxJ-20" value="" style="endArrow=classic;html=1;entryX=0.022;entryY=0.674;entryDx=0;entryDy=0;entryPerimeter=0;" edge="1" parent="GMv7muQKxePfa3yibNe2-1">
          <mxGeometry width="50" height="50" relative="1" as="geometry">
            <mxPoint x="120" y="311.76" as="sourcePoint" />
            <mxPoint x="260.9999" y="311.7439999999999" as="targetPoint" />
          </mxGeometry>
        </mxCell>
        <mxCell id="r_QSIj7Veg4OnCeHJCxJ-21" value="copy a.txt" style="text;html=1;align=center;verticalAlign=middle;resizable=0;points=[];autosize=1;strokeColor=none;" vertex="1" parent="GMv7muQKxePfa3yibNe2-1">
          <mxGeometry x="152" y="291.76" width="60" height="20" as="geometry" />
        </mxCell>
        <mxCell id="r_QSIj7Veg4OnCeHJCxJ-17" value="Normal Folder" style="aspect=fixed;html=1;points=[];align=center;image;fontSize=12;image=img/lib/azure2/general/Folder_Blank.svg;" vertex="1" parent="GMv7muQKxePfa3yibNe2-1">
          <mxGeometry x="240" y="239" width="147.86" height="120" as="geometry" />
        </mxCell>
        <mxCell id="14pkPNIHaboXRfsYoTZx-1" value="" style="group" vertex="1" connectable="0" parent="GMv7muQKxePfa3yibNe2-1">
          <mxGeometry x="570" y="239" width="147.86" height="120" as="geometry" />
        </mxCell>
        <mxCell id="r_QSIj7Veg4OnCeHJCxJ-13" value="RPM Folder" style="aspect=fixed;html=1;points=[];align=center;image;fontSize=12;image=img/lib/azure2/general/Folder_Blank.svg;" vertex="1" parent="14pkPNIHaboXRfsYoTZx-1">
          <mxGeometry width="147.86" height="120" as="geometry" />
        </mxCell>
        <mxCell id="r_QSIj7Veg4OnCeHJCxJ-14" value="a.txt.nxl" style="pointerEvents=1;shadow=0;dashed=0;html=1;strokeColor=#005700;fillColor=#008a00;labelPosition=center;verticalLabelPosition=bottom;verticalAlign=top;outlineConnect=0;align=center;shape=mxgraph.office.concepts.file_key;fontColor=#ffffff;" vertex="1" parent="14pkPNIHaboXRfsYoTZx-1">
          <mxGeometry x="85" y="36.74000000000001" width="46" height="56" as="geometry" />
        </mxCell>
        <mxCell id="14pkPNIHaboXRfsYoTZx-0" value="a.txt" style="shape=image;html=1;verticalAlign=top;verticalLabelPosition=bottom;labelBackgroundColor=#ffffff;imageAspect=0;aspect=fixed;image=https://cdn3.iconfinder.com/data/icons/google-suits-1/32/7_docs_document_file_data_google_suits-128.png" vertex="1" parent="14pkPNIHaboXRfsYoTZx-1">
          <mxGeometry x="9" y="30.000000000000057" width="65" height="65" as="geometry" />
        </mxCell>
        <mxCell id="DrXREMnMUBdbzShw-7_8-0" value="a.txt" style="shape=image;html=1;verticalAlign=top;verticalLabelPosition=bottom;labelBackgroundColor=#ffffff;imageAspect=0;aspect=fixed;image=https://cdn3.iconfinder.com/data/icons/google-suits-1/32/7_docs_document_file_data_google_suits-128.png" vertex="1" parent="GMv7muQKxePfa3yibNe2-1">
          <mxGeometry x="250" y="268.00000000000006" width="65" height="65" as="geometry" />
        </mxCell>
        <mxCell id="DrXREMnMUBdbzShw-7_8-1" value="" style="shape=flexArrow;endArrow=classic;html=1;" edge="1" parent="GMv7muQKxePfa3yibNe2-1">
          <mxGeometry width="50" height="50" relative="1" as="geometry">
            <mxPoint x="390" y="309" as="sourcePoint" />
            <mxPoint x="570" y="309" as="targetPoint" />
          </mxGeometry>
        </mxCell>
        <mxCell id="DrXREMnMUBdbzShw-7_8-2" value="SUCCESS" style="text;html=1;align=center;verticalAlign=middle;resizable=0;points=[];autosize=1;strokeColor=none;" vertex="1" parent="GMv7muQKxePfa3yibNe2-1">
          <mxGeometry x="420" y="279" width="70" height="20" as="geometry" />
        </mxCell>
        <mxCell id="DrXREMnMUBdbzShw-7_8-8" value="" style="group" vertex="1" connectable="0" parent="GMv7muQKxePfa3yibNe2-1">
          <mxGeometry x="570" y="80" width="147.86" height="120" as="geometry" />
        </mxCell>
        <mxCell id="r_QSIj7Veg4OnCeHJCxJ-2" value="RPM Folder" style="aspect=fixed;html=1;points=[];align=center;image;fontSize=12;image=img/lib/azure2/general/Folder_Blank.svg;" vertex="1" parent="DrXREMnMUBdbzShw-7_8-8">
          <mxGeometry width="147.86" height="120" as="geometry" />
        </mxCell>
        <mxCell id="r_QSIj7Veg4OnCeHJCxJ-3" value="a.txt.nxl" style="pointerEvents=1;shadow=0;dashed=0;html=1;strokeColor=#005700;fillColor=#008a00;labelPosition=center;verticalLabelPosition=bottom;verticalAlign=top;outlineConnect=0;align=center;shape=mxgraph.office.concepts.file_key;fontColor=#ffffff;" vertex="1" parent="DrXREMnMUBdbzShw-7_8-8">
          <mxGeometry x="85" y="36.74000000000001" width="46" height="56" as="geometry" />
        </mxCell>
        <mxCell id="DrXREMnMUBdbzShw-7_8-9" value="" style="shape=flexArrow;endArrow=classic;html=1;entryX=-0.014;entryY=0.625;entryDx=0;entryDy=0;entryPerimeter=0;" edge="1" parent="GMv7muQKxePfa3yibNe2-1" target="r_QSIj7Veg4OnCeHJCxJ-2">
          <mxGeometry width="50" height="50" relative="1" as="geometry">
            <mxPoint x="390" y="155" as="sourcePoint" />
            <mxPoint x="450" y="300" as="targetPoint" />
          </mxGeometry>
        </mxCell>
        <mxCell id="DrXREMnMUBdbzShw-7_8-10" value="SUCCESS" style="text;html=1;align=center;verticalAlign=middle;resizable=0;points=[];autosize=1;strokeColor=none;" vertex="1" parent="GMv7muQKxePfa3yibNe2-1">
          <mxGeometry x="420" y="120" width="70" height="20" as="geometry" />
        </mxCell>
        <mxCell id="ZZaqTbI0mlckGNy8Gid3-0" value="Un-Trusted Process" style="aspect=fixed;pointerEvents=1;shadow=0;dashed=0;html=1;strokeColor=none;labelPosition=center;verticalLabelPosition=bottom;verticalAlign=top;align=center;fillColor=#00188D;shape=mxgraph.mscae.enterprise.application" vertex="1" parent="GMv7muQKxePfa3yibNe2-1">
          <mxGeometry x="40" y="466" width="80" height="54.4" as="geometry" />
        </mxCell>
        <mxCell id="ZZaqTbI0mlckGNy8Gid3-1" value="" style="group" vertex="1" connectable="0" parent="GMv7muQKxePfa3yibNe2-1">
          <mxGeometry x="240" y="426" width="147.86" height="120" as="geometry" />
        </mxCell>
        <mxCell id="ZZaqTbI0mlckGNy8Gid3-2" value="RPM Folder" style="aspect=fixed;html=1;points=[];align=center;image;fontSize=12;image=img/lib/azure2/general/Folder_Blank.svg;" vertex="1" parent="ZZaqTbI0mlckGNy8Gid3-1">
          <mxGeometry width="147.86" height="120" as="geometry" />
        </mxCell>
        <mxCell id="ZZaqTbI0mlckGNy8Gid3-3" value="a.txt.nxl" style="pointerEvents=1;shadow=0;dashed=0;html=1;strokeColor=#005700;fillColor=#008a00;labelPosition=center;verticalLabelPosition=bottom;verticalAlign=top;outlineConnect=0;align=center;shape=mxgraph.office.concepts.file_key;fontColor=#ffffff;" vertex="1" parent="ZZaqTbI0mlckGNy8Gid3-1">
          <mxGeometry x="85" y="36.74000000000001" width="46" height="56" as="geometry" />
        </mxCell>
        <mxCell id="ZZaqTbI0mlckGNy8Gid3-4" value="a.txt" style="aspect=fixed;html=1;points=[];align=center;image;fontSize=12;image=img/lib/azure2/general/File.svg;" vertex="1" parent="ZZaqTbI0mlckGNy8Gid3-1">
          <mxGeometry x="20" y="35" width="45.45" height="56" as="geometry" />
        </mxCell>
        <mxCell id="ZZaqTbI0mlckGNy8Gid3-5" value="" style="endArrow=classic;html=1;entryX=0.022;entryY=0.674;entryDx=0;entryDy=0;entryPerimeter=0;" edge="1" parent="GMv7muQKxePfa3yibNe2-1" target="ZZaqTbI0mlckGNy8Gid3-4">
          <mxGeometry width="50" height="50" relative="1" as="geometry">
            <mxPoint x="120" y="498.76" as="sourcePoint" />
            <mxPoint x="220" y="499.76" as="targetPoint" />
          </mxGeometry>
        </mxCell>
        <mxCell id="ZZaqTbI0mlckGNy8Gid3-6" value="delete a.txt" style="text;html=1;align=center;verticalAlign=middle;resizable=0;points=[];autosize=1;strokeColor=none;" vertex="1" parent="GMv7muQKxePfa3yibNe2-1">
          <mxGeometry x="147" y="478.76" width="70" height="20" as="geometry" />
        </mxCell>
        <mxCell id="ZZaqTbI0mlckGNy8Gid3-7" value="RPM Folder" style="aspect=fixed;html=1;points=[];align=center;image;fontSize=12;image=img/lib/azure2/general/Folder_Blank.svg;" vertex="1" parent="GMv7muQKxePfa3yibNe2-1">
          <mxGeometry x="570" y="426" width="147.86" height="120" as="geometry" />
        </mxCell>
        <mxCell id="ZZaqTbI0mlckGNy8Gid3-8" value="" style="shape=flexArrow;endArrow=classic;html=1;entryX=0.007;entryY=0.667;entryDx=0;entryDy=0;entryPerimeter=0;" edge="1" parent="GMv7muQKxePfa3yibNe2-1" target="ZZaqTbI0mlckGNy8Gid3-7">
          <mxGeometry width="50" height="50" relative="1" as="geometry">
            <mxPoint x="390" y="506" as="sourcePoint" />
            <mxPoint x="450" y="626" as="targetPoint" />
          </mxGeometry>
        </mxCell>
        <mxCell id="ZZaqTbI0mlckGNy8Gid3-9" value="a.txt will be deleted&lt;br&gt;a.txt.nxl will be deleted" style="text;html=1;align=center;verticalAlign=middle;resizable=0;points=[];autosize=1;strokeColor=none;" vertex="1" parent="GMv7muQKxePfa3yibNe2-1">
          <mxGeometry x="396" y="464.76" width="140" height="30" as="geometry" />
        </mxCell>
        <mxCell id="ZZaqTbI0mlckGNy8Gid3-10" value="Un-Trusted Process" style="aspect=fixed;pointerEvents=1;shadow=0;dashed=0;html=1;strokeColor=none;labelPosition=center;verticalLabelPosition=bottom;verticalAlign=top;align=center;fillColor=#00188D;shape=mxgraph.mscae.enterprise.application" vertex="1" parent="GMv7muQKxePfa3yibNe2-1">
          <mxGeometry x="40" y="619" width="80" height="54.4" as="geometry" />
        </mxCell>
        <mxCell id="ZZaqTbI0mlckGNy8Gid3-11" value="" style="group" vertex="1" connectable="0" parent="GMv7muQKxePfa3yibNe2-1">
          <mxGeometry x="570" y="579" width="147.86" height="120" as="geometry" />
        </mxCell>
        <mxCell id="ZZaqTbI0mlckGNy8Gid3-12" value="RPM Folder" style="aspect=fixed;html=1;points=[];align=center;image;fontSize=12;image=img/lib/azure2/general/Folder_Blank.svg;" vertex="1" parent="ZZaqTbI0mlckGNy8Gid3-11">
          <mxGeometry width="147.86" height="120" as="geometry" />
        </mxCell>
        <mxCell id="ZZaqTbI0mlckGNy8Gid3-13" value="a.txt.nxl" style="pointerEvents=1;shadow=0;dashed=0;html=1;strokeColor=#005700;fillColor=#008a00;labelPosition=center;verticalLabelPosition=bottom;verticalAlign=top;outlineConnect=0;align=center;shape=mxgraph.office.concepts.file_key;fontColor=#ffffff;" vertex="1" parent="ZZaqTbI0mlckGNy8Gid3-11">
          <mxGeometry x="85" y="36.74000000000001" width="46" height="56" as="geometry" />
        </mxCell>
        <mxCell id="ZZaqTbI0mlckGNy8Gid3-14" value="a.txt" style="aspect=fixed;html=1;points=[];align=center;image;fontSize=12;image=img/lib/azure2/general/File.svg;" vertex="1" parent="ZZaqTbI0mlckGNy8Gid3-11">
          <mxGeometry x="20" y="35" width="45.45" height="56" as="geometry" />
        </mxCell>
        <mxCell id="ZZaqTbI0mlckGNy8Gid3-15" value="copy a.txt" style="text;html=1;align=center;verticalAlign=middle;resizable=0;points=[];autosize=1;strokeColor=none;" vertex="1" parent="GMv7muQKxePfa3yibNe2-1">
          <mxGeometry x="140" y="625" width="60" height="20" as="geometry" />
        </mxCell>
        <mxCell id="ZZaqTbI0mlckGNy8Gid3-16" value="Normal Folder" style="aspect=fixed;html=1;points=[];align=center;image;fontSize=12;image=img/lib/azure2/general/Folder_Blank.svg;" vertex="1" parent="GMv7muQKxePfa3yibNe2-1">
          <mxGeometry x="240" y="579" width="147.86" height="120" as="geometry" />
        </mxCell>
        <mxCell id="ZZaqTbI0mlckGNy8Gid3-17" value="a.txt" style="shape=image;html=1;verticalAlign=top;verticalLabelPosition=bottom;labelBackgroundColor=#ffffff;imageAspect=0;aspect=fixed;image=https://cdn3.iconfinder.com/data/icons/google-suits-1/32/7_docs_document_file_data_google_suits-128.png" vertex="1" parent="GMv7muQKxePfa3yibNe2-1">
          <mxGeometry x="240" y="608.2" width="65" height="65" as="geometry" />
        </mxCell>
        <mxCell id="ZZaqTbI0mlckGNy8Gid3-18" value="" style="endArrow=classic;html=1;exitX=1;exitY=0.5;exitDx=0;exitDy=0;exitPerimeter=0;" edge="1" parent="GMv7muQKxePfa3yibNe2-1">
          <mxGeometry width="50" height="50" relative="1" as="geometry">
            <mxPoint x="120" y="646.2" as="sourcePoint" />
            <mxPoint x="254" y="646" as="targetPoint" />
          </mxGeometry>
        </mxCell>
        <mxCell id="ZZaqTbI0mlckGNy8Gid3-19" value="" style="shape=flexArrow;endArrow=classic;html=1;entryX=-0.014;entryY=0.575;entryDx=0;entryDy=0;entryPerimeter=0;" edge="1" parent="GMv7muQKxePfa3yibNe2-1" target="ZZaqTbI0mlckGNy8Gid3-12">
          <mxGeometry width="50" height="50" relative="1" as="geometry">
            <mxPoint x="390" y="648" as="sourcePoint" />
            <mxPoint x="450" y="649" as="targetPoint" />
          </mxGeometry>
        </mxCell>
        <mxCell id="ZZaqTbI0mlckGNy8Gid3-20" value="ACCESS DENIDED" style="text;html=1;align=center;verticalAlign=middle;resizable=0;points=[];autosize=1;strokeColor=none;" vertex="1" parent="GMv7muQKxePfa3yibNe2-1">
          <mxGeometry x="405" y="619" width="120" height="20" as="geometry" />
        </mxCell>
      </root>
    </mxGraphModel>
  </diagram>
  <diagram id="DPfjs0EcaI1xPxXf5vxl" name="Page-5-1">
    <mxGraphModel dx="1422" dy="823" grid="1" gridSize="10" guides="1" tooltips="1" connect="1" arrows="1" fold="1" page="1" pageScale="1" pageWidth="850" pageHeight="1100" math="0" shadow="0">
      <root>
        <mxCell id="lCXhdvk04ypBz417QvPm-0" />
        <mxCell id="lCXhdvk04ypBz417QvPm-1" parent="lCXhdvk04ypBz417QvPm-0" />
        <mxCell id="lCXhdvk04ypBz417QvPm-2" value="" style="shape=table;html=1;whiteSpace=wrap;startSize=0;container=1;collapsible=0;childLayout=tableLayout;" vertex="1" parent="lCXhdvk04ypBz417QvPm-1">
          <mxGeometry x="50" y="80" width="780" height="360" as="geometry" />
        </mxCell>
        <mxCell id="lCXhdvk04ypBz417QvPm-3" value="" style="shape=partialRectangle;html=1;whiteSpace=wrap;collapsible=0;dropTarget=0;pointerEvents=0;fillColor=none;top=0;left=0;bottom=0;right=0;points=[[0,0.5],[1,0.5]];portConstraint=eastwest;" vertex="1" parent="lCXhdvk04ypBz417QvPm-2">
          <mxGeometry width="780" height="40" as="geometry" />
        </mxCell>
        <mxCell id="lCXhdvk04ypBz417QvPm-4" value="Solution" style="shape=partialRectangle;html=1;whiteSpace=wrap;connectable=0;overflow=hidden;fillColor=none;top=0;left=0;bottom=0;right=0;" vertex="1" parent="lCXhdvk04ypBz417QvPm-3">
          <mxGeometry width="133" height="40" as="geometry" />
        </mxCell>
        <mxCell id="lCXhdvk04ypBz417QvPm-5" value="Condition" style="shape=partialRectangle;html=1;whiteSpace=wrap;connectable=0;overflow=hidden;fillColor=none;top=0;left=0;bottom=0;right=0;" vertex="1" parent="lCXhdvk04ypBz417QvPm-3">
          <mxGeometry x="133" width="237" height="40" as="geometry" />
        </mxCell>
        <mxCell id="lCXhdvk04ypBz417QvPm-6" value="Code Change" style="shape=partialRectangle;html=1;whiteSpace=wrap;connectable=0;overflow=hidden;fillColor=none;top=0;left=0;bottom=0;right=0;" vertex="1" parent="lCXhdvk04ypBz417QvPm-3">
          <mxGeometry x="370" width="120" height="40" as="geometry" />
        </mxCell>
        <mxCell id="lCXhdvk04ypBz417QvPm-7" value="Affect" style="shape=partialRectangle;html=1;whiteSpace=wrap;connectable=0;overflow=hidden;fillColor=none;top=0;left=0;bottom=0;right=0;" vertex="1" parent="lCXhdvk04ypBz417QvPm-3">
          <mxGeometry x="490" width="290" height="40" as="geometry" />
        </mxCell>
        <mxCell id="lCXhdvk04ypBz417QvPm-8" value="" style="shape=partialRectangle;html=1;whiteSpace=wrap;collapsible=0;dropTarget=0;pointerEvents=0;fillColor=none;top=0;left=0;bottom=0;right=0;points=[[0,0.5],[1,0.5]];portConstraint=eastwest;" vertex="1" parent="lCXhdvk04ypBz417QvPm-2">
          <mxGeometry y="40" width="780" height="100" as="geometry" />
        </mxCell>
        <mxCell id="lCXhdvk04ypBz417QvPm-9" value="Process" style="shape=partialRectangle;html=1;whiteSpace=wrap;connectable=0;overflow=hidden;fillColor=none;top=0;left=0;bottom=0;right=0;" vertex="1" parent="lCXhdvk04ypBz417QvPm-8">
          <mxGeometry width="133" height="100" as="geometry" />
        </mxCell>
        <mxCell id="lCXhdvk04ypBz417QvPm-10" value="1. Process need know run on ECTR or not&lt;br&gt;2. Need RMX pass parameter&lt;br&gt;3. Like SolidWorks, Creo will co-work with several different processes" style="shape=partialRectangle;html=1;whiteSpace=wrap;connectable=0;overflow=hidden;fillColor=none;top=0;left=0;bottom=0;right=0;align=left;" vertex="1" parent="lCXhdvk04ypBz417QvPm-8">
          <mxGeometry x="133" width="237" height="100" as="geometry" />
        </mxCell>
        <mxCell id="lCXhdvk04ypBz417QvPm-11" value="&lt;span&gt;1. RMX&lt;br&gt;2. RMDSDK&lt;br&gt;3.&amp;nbsp;&lt;/span&gt;&lt;span&gt;nxrmserv&lt;br&gt;4. nxrmdrvlib&lt;br&gt;&lt;/span&gt;&lt;span&gt;5. nxrmfltman&lt;br&gt;6. nxrmflt&lt;br&gt;&lt;/span&gt;" style="shape=partialRectangle;html=1;whiteSpace=wrap;connectable=0;overflow=hidden;fillColor=none;top=0;left=0;bottom=0;right=0;align=left;" vertex="1" parent="lCXhdvk04ypBz417QvPm-8">
          <mxGeometry x="370" width="120" height="100" as="geometry" />
        </mxCell>
        <mxCell id="lCXhdvk04ypBz417QvPm-12" value="1. Just the specify process" style="shape=partialRectangle;html=1;whiteSpace=wrap;connectable=0;overflow=hidden;fillColor=none;top=0;left=0;bottom=0;right=0;align=left;" vertex="1" parent="lCXhdvk04ypBz417QvPm-8">
          <mxGeometry x="490" width="290" height="100" as="geometry" />
        </mxCell>
        <mxCell id="lCXhdvk04ypBz417QvPm-13" value="" style="shape=partialRectangle;html=1;whiteSpace=wrap;collapsible=0;dropTarget=0;pointerEvents=0;fillColor=none;top=0;left=0;bottom=0;right=0;points=[[0,0.5],[1,0.5]];portConstraint=eastwest;" vertex="1" parent="lCXhdvk04ypBz417QvPm-2">
          <mxGeometry y="140" width="780" height="110" as="geometry" />
        </mxCell>
        <mxCell id="lCXhdvk04ypBz417QvPm-14" value="Folder" style="shape=partialRectangle;html=1;whiteSpace=wrap;connectable=0;overflow=hidden;fillColor=none;top=0;left=0;bottom=0;right=0;" vertex="1" parent="lCXhdvk04ypBz417QvPm-13">
          <mxGeometry width="133" height="110" as="geometry" />
        </mxCell>
        <mxCell id="lCXhdvk04ypBz417QvPm-15" value="1. IT config" style="shape=partialRectangle;html=1;whiteSpace=wrap;connectable=0;overflow=hidden;fillColor=none;top=0;left=0;bottom=0;right=0;align=left;" vertex="1" parent="lCXhdvk04ypBz417QvPm-13">
          <mxGeometry x="133" width="237" height="110" as="geometry" />
        </mxCell>
        <mxCell id="lCXhdvk04ypBz417QvPm-16" value="1. nxrmserv&lt;br&gt;2. nxrmdrvlib&lt;br&gt;3. nxrmfltman&lt;br&gt;4. nxrmflt" style="shape=partialRectangle;html=1;whiteSpace=wrap;connectable=0;overflow=hidden;fillColor=none;top=0;left=0;bottom=0;right=0;align=left;" vertex="1" parent="lCXhdvk04ypBz417QvPm-13">
          <mxGeometry x="370" width="120" height="110" as="geometry" />
        </mxCell>
        <mxCell id="lCXhdvk04ypBz417QvPm-17" value="1. When the process access this folder" style="shape=partialRectangle;html=1;whiteSpace=wrap;connectable=0;overflow=hidden;fillColor=none;top=0;left=0;bottom=0;right=0;align=left;" vertex="1" parent="lCXhdvk04ypBz417QvPm-13">
          <mxGeometry x="490" width="290" height="110" as="geometry" />
        </mxCell>
        <mxCell id="lCXhdvk04ypBz417QvPm-18" value="" style="shape=partialRectangle;html=1;whiteSpace=wrap;collapsible=0;dropTarget=0;pointerEvents=0;fillColor=none;top=0;left=0;bottom=0;right=0;points=[[0,0.5],[1,0.5]];portConstraint=eastwest;" vertex="1" parent="lCXhdvk04ypBz417QvPm-2">
          <mxGeometry y="250" width="780" height="110" as="geometry" />
        </mxCell>
        <mxCell id="lCXhdvk04ypBz417QvPm-19" value="Tursted, Un-Trusted" style="shape=partialRectangle;html=1;whiteSpace=wrap;connectable=0;overflow=hidden;fillColor=none;top=0;left=0;bottom=0;right=0;" vertex="1" parent="lCXhdvk04ypBz417QvPm-18">
          <mxGeometry width="133" height="110" as="geometry" />
        </mxCell>
        <mxCell id="lCXhdvk04ypBz417QvPm-20" value="" style="shape=partialRectangle;html=1;whiteSpace=wrap;connectable=0;overflow=hidden;fillColor=none;top=0;left=0;bottom=0;right=0;" vertex="1" parent="lCXhdvk04ypBz417QvPm-18">
          <mxGeometry x="133" width="237" height="110" as="geometry" />
        </mxCell>
        <mxCell id="lCXhdvk04ypBz417QvPm-21" value="1. nxrmflt" style="shape=partialRectangle;html=1;whiteSpace=wrap;connectable=0;overflow=hidden;fillColor=none;top=0;left=0;bottom=0;right=0;align=left;" vertex="1" parent="lCXhdvk04ypBz417QvPm-18">
          <mxGeometry x="370" width="120" height="110" as="geometry" />
        </mxCell>
        <mxCell id="lCXhdvk04ypBz417QvPm-22" value="1. The trusted process (RPM behavior will be changed) no matter run on ECTR or not&lt;br&gt;2. The trusted process need call extra API to delete .nxl file" style="shape=partialRectangle;html=1;whiteSpace=wrap;connectable=0;overflow=hidden;fillColor=none;top=0;left=0;bottom=0;right=0;align=left;" vertex="1" parent="lCXhdvk04ypBz417QvPm-18">
          <mxGeometry x="490" width="290" height="110" as="geometry" />
        </mxCell>
      </root>
    </mxGraphModel>
  </diagram>
  <diagram id="v0z7YUQveBLBB8Wz0RzO" name="Page-5-2">
    <mxGraphModel dx="1422" dy="789" grid="1" gridSize="10" guides="1" tooltips="1" connect="1" arrows="1" fold="1" page="1" pageScale="1" pageWidth="850" pageHeight="1100" math="0" shadow="0">
      <root>
        <mxCell id="uvlaSlCQrXR-2aM9I9yn-0" />
        <mxCell id="uvlaSlCQrXR-2aM9I9yn-1" parent="uvlaSlCQrXR-2aM9I9yn-0" />
        <mxCell id="BBaSUOJuMikFfq8Q3Nn1-0" value="" style="shape=table;html=1;whiteSpace=wrap;startSize=0;container=1;collapsible=0;childLayout=tableLayout;" parent="uvlaSlCQrXR-2aM9I9yn-1" vertex="1">
          <mxGeometry x="50" y="80" width="780" height="360" as="geometry" />
        </mxCell>
        <mxCell id="BBaSUOJuMikFfq8Q3Nn1-1" value="" style="shape=partialRectangle;html=1;whiteSpace=wrap;collapsible=0;dropTarget=0;pointerEvents=0;fillColor=none;top=0;left=0;bottom=0;right=0;points=[[0,0.5],[1,0.5]];portConstraint=eastwest;" parent="BBaSUOJuMikFfq8Q3Nn1-0" vertex="1">
          <mxGeometry width="780" height="40" as="geometry" />
        </mxCell>
        <mxCell id="BBaSUOJuMikFfq8Q3Nn1-2" value="Solution" style="shape=partialRectangle;html=1;whiteSpace=wrap;connectable=0;overflow=hidden;fillColor=none;top=0;left=0;bottom=0;right=0;" parent="BBaSUOJuMikFfq8Q3Nn1-1" vertex="1">
          <mxGeometry width="133" height="40" as="geometry" />
        </mxCell>
        <mxCell id="BBaSUOJuMikFfq8Q3Nn1-3" value="Condition" style="shape=partialRectangle;html=1;whiteSpace=wrap;connectable=0;overflow=hidden;fillColor=none;top=0;left=0;bottom=0;right=0;" parent="BBaSUOJuMikFfq8Q3Nn1-1" vertex="1">
          <mxGeometry x="133" width="237" height="40" as="geometry" />
        </mxCell>
        <mxCell id="BBaSUOJuMikFfq8Q3Nn1-4" value="Code Change" style="shape=partialRectangle;html=1;whiteSpace=wrap;connectable=0;overflow=hidden;fillColor=none;top=0;left=0;bottom=0;right=0;" parent="BBaSUOJuMikFfq8Q3Nn1-1" vertex="1">
          <mxGeometry x="370" width="120" height="40" as="geometry" />
        </mxCell>
        <mxCell id="BBaSUOJuMikFfq8Q3Nn1-5" value="Affect" style="shape=partialRectangle;html=1;whiteSpace=wrap;connectable=0;overflow=hidden;fillColor=none;top=0;left=0;bottom=0;right=0;" parent="BBaSUOJuMikFfq8Q3Nn1-1" vertex="1">
          <mxGeometry x="490" width="290" height="40" as="geometry" />
        </mxCell>
        <mxCell id="BBaSUOJuMikFfq8Q3Nn1-6" value="" style="shape=partialRectangle;html=1;whiteSpace=wrap;collapsible=0;dropTarget=0;pointerEvents=0;fillColor=none;top=0;left=0;bottom=0;right=0;points=[[0,0.5],[1,0.5]];portConstraint=eastwest;" parent="BBaSUOJuMikFfq8Q3Nn1-0" vertex="1">
          <mxGeometry y="40" width="780" height="100" as="geometry" />
        </mxCell>
        <mxCell id="BBaSUOJuMikFfq8Q3Nn1-7" value="Process" style="shape=partialRectangle;html=1;whiteSpace=wrap;connectable=0;overflow=hidden;fillColor=none;top=0;left=0;bottom=0;right=0;" parent="BBaSUOJuMikFfq8Q3Nn1-6" vertex="1">
          <mxGeometry width="133" height="100" as="geometry" />
        </mxCell>
        <mxCell id="BBaSUOJuMikFfq8Q3Nn1-8" value="1. Process need know run on ECTR or not&lt;br&gt;2. Need RMX pass parameter&lt;br&gt;3. Like SolidWorks, Creo will co-work with several different processes" style="shape=partialRectangle;html=1;whiteSpace=wrap;connectable=0;overflow=hidden;fillColor=none;top=0;left=0;bottom=0;right=0;align=left;" parent="BBaSUOJuMikFfq8Q3Nn1-6" vertex="1">
          <mxGeometry x="133" width="237" height="100" as="geometry" />
        </mxCell>
        <mxCell id="BBaSUOJuMikFfq8Q3Nn1-9" value="&lt;span&gt;1. RMX&lt;br&gt;2. RMDSDK&lt;br&gt;3.&amp;nbsp;&lt;/span&gt;&lt;span&gt;nxrmserv&lt;br&gt;4. nxrmdrvlib&lt;br&gt;&lt;/span&gt;&lt;span&gt;5. nxrmfltman&lt;br&gt;6. nxrmflt&lt;br&gt;&lt;/span&gt;" style="shape=partialRectangle;html=1;whiteSpace=wrap;connectable=0;overflow=hidden;fillColor=none;top=0;left=0;bottom=0;right=0;align=left;" parent="BBaSUOJuMikFfq8Q3Nn1-6" vertex="1">
          <mxGeometry x="370" width="120" height="100" as="geometry" />
        </mxCell>
        <mxCell id="BBaSUOJuMikFfq8Q3Nn1-10" value="1. Just the specify process" style="shape=partialRectangle;html=1;whiteSpace=wrap;connectable=0;overflow=hidden;fillColor=none;top=0;left=0;bottom=0;right=0;align=left;" parent="BBaSUOJuMikFfq8Q3Nn1-6" vertex="1">
          <mxGeometry x="490" width="290" height="100" as="geometry" />
        </mxCell>
        <mxCell id="BBaSUOJuMikFfq8Q3Nn1-11" value="" style="shape=partialRectangle;html=1;whiteSpace=wrap;collapsible=0;dropTarget=0;pointerEvents=0;fillColor=none;top=0;left=0;bottom=0;right=0;points=[[0,0.5],[1,0.5]];portConstraint=eastwest;" parent="BBaSUOJuMikFfq8Q3Nn1-0" vertex="1">
          <mxGeometry y="140" width="780" height="110" as="geometry" />
        </mxCell>
        <mxCell id="BBaSUOJuMikFfq8Q3Nn1-12" value="Folder" style="shape=partialRectangle;html=1;whiteSpace=wrap;connectable=0;overflow=hidden;fillColor=none;top=0;left=0;bottom=0;right=0;" parent="BBaSUOJuMikFfq8Q3Nn1-11" vertex="1">
          <mxGeometry width="133" height="110" as="geometry" />
        </mxCell>
        <mxCell id="BBaSUOJuMikFfq8Q3Nn1-13" value="1. IT config or RMX set parameter" style="shape=partialRectangle;html=1;whiteSpace=wrap;connectable=0;overflow=hidden;fillColor=none;top=0;left=0;bottom=0;right=0;align=left;" parent="BBaSUOJuMikFfq8Q3Nn1-11" vertex="1">
          <mxGeometry x="133" width="237" height="110" as="geometry" />
        </mxCell>
        <mxCell id="BBaSUOJuMikFfq8Q3Nn1-14" value="1. nxrmserv&lt;br&gt;2. nxrmdrvlib&lt;br&gt;3. nxrmfltman&lt;br&gt;4. nxrmflt" style="shape=partialRectangle;html=1;whiteSpace=wrap;connectable=0;overflow=hidden;fillColor=none;top=0;left=0;bottom=0;right=0;align=left;" parent="BBaSUOJuMikFfq8Q3Nn1-11" vertex="1">
          <mxGeometry x="370" width="120" height="110" as="geometry" />
        </mxCell>
        <mxCell id="BBaSUOJuMikFfq8Q3Nn1-15" value="1. When the process access this folder" style="shape=partialRectangle;html=1;whiteSpace=wrap;connectable=0;overflow=hidden;fillColor=none;top=0;left=0;bottom=0;right=0;align=left;" parent="BBaSUOJuMikFfq8Q3Nn1-11" vertex="1">
          <mxGeometry x="490" width="290" height="110" as="geometry" />
        </mxCell>
        <mxCell id="BBaSUOJuMikFfq8Q3Nn1-16" value="" style="shape=partialRectangle;html=1;whiteSpace=wrap;collapsible=0;dropTarget=0;pointerEvents=0;fillColor=none;top=0;left=0;bottom=0;right=0;points=[[0,0.5],[1,0.5]];portConstraint=eastwest;" parent="BBaSUOJuMikFfq8Q3Nn1-0" vertex="1">
          <mxGeometry y="250" width="780" height="110" as="geometry" />
        </mxCell>
        <mxCell id="BBaSUOJuMikFfq8Q3Nn1-17" value="Tursted, Un-Trusted" style="shape=partialRectangle;html=1;whiteSpace=wrap;connectable=0;overflow=hidden;fillColor=none;top=0;left=0;bottom=0;right=0;" parent="BBaSUOJuMikFfq8Q3Nn1-16" vertex="1">
          <mxGeometry width="133" height="110" as="geometry" />
        </mxCell>
        <mxCell id="BBaSUOJuMikFfq8Q3Nn1-18" value="" style="shape=partialRectangle;html=1;whiteSpace=wrap;connectable=0;overflow=hidden;fillColor=none;top=0;left=0;bottom=0;right=0;" parent="BBaSUOJuMikFfq8Q3Nn1-16" vertex="1">
          <mxGeometry x="133" width="237" height="110" as="geometry" />
        </mxCell>
        <mxCell id="BBaSUOJuMikFfq8Q3Nn1-19" value="1. nxrmflt" style="shape=partialRectangle;html=1;whiteSpace=wrap;connectable=0;overflow=hidden;fillColor=none;top=0;left=0;bottom=0;right=0;align=left;" parent="BBaSUOJuMikFfq8Q3Nn1-16" vertex="1">
          <mxGeometry x="370" width="120" height="110" as="geometry" />
        </mxCell>
        <mxCell id="BBaSUOJuMikFfq8Q3Nn1-20" value="1. The trusted process (RPM behavior will be changed) no matter run on ECTR or not&lt;br&gt;2. The trusted process need call extra API to delete .nxl file" style="shape=partialRectangle;html=1;whiteSpace=wrap;connectable=0;overflow=hidden;fillColor=none;top=0;left=0;bottom=0;right=0;align=left;" parent="BBaSUOJuMikFfq8Q3Nn1-16" vertex="1">
          <mxGeometry x="490" width="290" height="110" as="geometry" />
        </mxCell>
      </root>
    </mxGraphModel>
  </diagram>
  <diagram id="c-w27-TgsAWEaB45VJmB" name="nxrmflt">
    <mxGraphModel dx="2272" dy="789" grid="1" gridSize="10" guides="1" tooltips="1" connect="1" arrows="1" fold="1" page="1" pageScale="1" pageWidth="850" pageHeight="1100" math="0" shadow="0">
      <root>
        <mxCell id="nnwSM9abwztzkjDomm-r-0" />
        <mxCell id="nnwSM9abwztzkjDomm-r-1" parent="nnwSM9abwztzkjDomm-r-0" />
        <mxCell id="nnwSM9abwztzkjDomm-r-2" value="1.&amp;nbsp; RPM Folder (nxrmfltManageSafeDir)&lt;br&gt;1.1 Cmd = 0, nxrmfltRemoveSafeDir" style="text;html=1;align=center;verticalAlign=middle;resizable=0;points=[];autosize=1;strokeColor=none;" vertex="1" parent="nnwSM9abwztzkjDomm-r-1">
          <mxGeometry x="-820" y="35" width="230" height="30" as="geometry" />
        </mxCell>
        <mxCell id="nnwSM9abwztzkjDomm-r-15" value="NXRMFLT_SAFEDIR_INFO" style="swimlane;fontStyle=0;childLayout=stackLayout;horizontal=1;startSize=26;fillColor=none;horizontalStack=0;resizeParent=1;resizeParentMax=0;resizeLast=0;collapsible=1;marginBottom=0;" vertex="1" parent="nnwSM9abwztzkjDomm-r-1">
          <mxGeometry x="-360" y="40" width="200" height="78" as="geometry" />
        </mxCell>
        <mxCell id="nnwSM9abwztzkjDomm-r-16" value="+ Cmd: ULONG" style="text;strokeColor=none;fillColor=none;align=left;verticalAlign=top;spacingLeft=4;spacingRight=4;overflow=hidden;rotatable=0;points=[[0,0.5],[1,0.5]];portConstraint=eastwest;" vertex="1" parent="nnwSM9abwztzkjDomm-r-15">
          <mxGeometry y="26" width="200" height="26" as="geometry" />
        </mxCell>
        <mxCell id="nnwSM9abwztzkjDomm-r-17" value="+ SafeDirPath: WCHAR" style="text;strokeColor=none;fillColor=none;align=left;verticalAlign=top;spacingLeft=4;spacingRight=4;overflow=hidden;rotatable=0;points=[[0,0.5],[1,0.5]];portConstraint=eastwest;" vertex="1" parent="nnwSM9abwztzkjDomm-r-15">
          <mxGeometry y="52" width="200" height="26" as="geometry" />
        </mxCell>
        <mxCell id="nnwSM9abwztzkjDomm-r-19" value="NXRMFLT_INSTANCE_CONTEXT" style="swimlane;fontStyle=0;childLayout=stackLayout;horizontal=1;startSize=26;fillColor=none;horizontalStack=0;resizeParent=1;resizeParentMax=0;resizeLast=0;collapsible=1;marginBottom=0;" vertex="1" parent="nnwSM9abwztzkjDomm-r-1">
          <mxGeometry x="-360" y="160" width="210" height="104" as="geometry" />
        </mxCell>
        <mxCell id="nnwSM9abwztzkjDomm-r-20" value="+ SafeDirList: LIST_ENTRY" style="text;strokeColor=none;fillColor=none;align=left;verticalAlign=top;spacingLeft=4;spacingRight=4;overflow=hidden;rotatable=0;points=[[0,0.5],[1,0.5]];portConstraint=eastwest;" vertex="1" parent="nnwSM9abwztzkjDomm-r-19">
          <mxGeometry y="26" width="210" height="26" as="geometry" />
        </mxCell>
        <mxCell id="nnwSM9abwztzkjDomm-r-21" value="+ field: type" style="text;strokeColor=none;fillColor=none;align=left;verticalAlign=top;spacingLeft=4;spacingRight=4;overflow=hidden;rotatable=0;points=[[0,0.5],[1,0.5]];portConstraint=eastwest;" vertex="1" parent="nnwSM9abwztzkjDomm-r-19">
          <mxGeometry y="52" width="210" height="26" as="geometry" />
        </mxCell>
        <mxCell id="nnwSM9abwztzkjDomm-r-22" value="+ field: type" style="text;strokeColor=none;fillColor=none;align=left;verticalAlign=top;spacingLeft=4;spacingRight=4;overflow=hidden;rotatable=0;points=[[0,0.5],[1,0.5]];portConstraint=eastwest;" vertex="1" parent="nnwSM9abwztzkjDomm-r-19">
          <mxGeometry y="78" width="210" height="26" as="geometry" />
        </mxCell>
        <mxCell id="nnwSM9abwztzkjDomm-r-23" value="NXRMFLT_GLOBAL_DATA" style="swimlane;fontStyle=0;childLayout=stackLayout;horizontal=1;startSize=26;fillColor=none;horizontalStack=0;resizeParent=1;resizeParentMax=0;resizeLast=0;collapsible=1;marginBottom=0;" vertex="1" parent="nnwSM9abwztzkjDomm-r-1">
          <mxGeometry x="-360" y="320" width="240" height="104" as="geometry" />
        </mxCell>
        <mxCell id="nnwSM9abwztzkjDomm-r-24" value="+ AttachtedInstancesList: LIST_ENTRY" style="text;strokeColor=none;fillColor=none;align=left;verticalAlign=top;spacingLeft=4;spacingRight=4;overflow=hidden;rotatable=0;points=[[0,0.5],[1,0.5]];portConstraint=eastwest;" vertex="1" parent="nnwSM9abwztzkjDomm-r-23">
          <mxGeometry y="26" width="240" height="26" as="geometry" />
        </mxCell>
        <mxCell id="nnwSM9abwztzkjDomm-r-25" value="+ field: type" style="text;strokeColor=none;fillColor=none;align=left;verticalAlign=top;spacingLeft=4;spacingRight=4;overflow=hidden;rotatable=0;points=[[0,0.5],[1,0.5]];portConstraint=eastwest;" vertex="1" parent="nnwSM9abwztzkjDomm-r-23">
          <mxGeometry y="52" width="240" height="26" as="geometry" />
        </mxCell>
        <mxCell id="nnwSM9abwztzkjDomm-r-26" value="+ field: type" style="text;strokeColor=none;fillColor=none;align=left;verticalAlign=top;spacingLeft=4;spacingRight=4;overflow=hidden;rotatable=0;points=[[0,0.5],[1,0.5]];portConstraint=eastwest;" vertex="1" parent="nnwSM9abwztzkjDomm-r-23">
          <mxGeometry y="78" width="240" height="26" as="geometry" />
        </mxCell>
        <mxCell id="nnwSM9abwztzkjDomm-r-27" value="NXRMFLT_SAFEDIR" style="swimlane;fontStyle=0;childLayout=stackLayout;horizontal=1;startSize=26;fillColor=none;horizontalStack=0;resizeParent=1;resizeParentMax=0;resizeLast=0;collapsible=1;marginBottom=0;" vertex="1" parent="nnwSM9abwztzkjDomm-r-1">
          <mxGeometry x="-600" y="160" width="160" height="104" as="geometry" />
        </mxCell>
        <mxCell id="nnwSM9abwztzkjDomm-r-28" value="+ Link: LIST_ENTRY" style="text;strokeColor=none;fillColor=none;align=left;verticalAlign=top;spacingLeft=4;spacingRight=4;overflow=hidden;rotatable=0;points=[[0,0.5],[1,0.5]];portConstraint=eastwest;" vertex="1" parent="nnwSM9abwztzkjDomm-r-27">
          <mxGeometry y="26" width="160" height="26" as="geometry" />
        </mxCell>
        <mxCell id="nnwSM9abwztzkjDomm-r-29" value="+ Option: ULONG" style="text;strokeColor=none;fillColor=none;align=left;verticalAlign=top;spacingLeft=4;spacingRight=4;overflow=hidden;rotatable=0;points=[[0,0.5],[1,0.5]];portConstraint=eastwest;" vertex="1" parent="nnwSM9abwztzkjDomm-r-27">
          <mxGeometry y="52" width="160" height="26" as="geometry" />
        </mxCell>
        <mxCell id="nnwSM9abwztzkjDomm-r-30" value="+ AutoAppendNxlExt: BOOL&#xa;" style="text;strokeColor=none;fillColor=none;align=left;verticalAlign=top;spacingLeft=4;spacingRight=4;overflow=hidden;rotatable=0;points=[[0,0.5],[1,0.5]];portConstraint=eastwest;" vertex="1" parent="nnwSM9abwztzkjDomm-r-27">
          <mxGeometry y="78" width="160" height="26" as="geometry" />
        </mxCell>
      </root>
    </mxGraphModel>
  </diagram>
</mxfile>
